<?xml version="1.0" encoding="UTF-8" standalone="no"?>
<svg
   version="1.1"
   width="245"
   height="210"
   id="svg41"
   sodipodi:docname="logo_ico.svg"
   xml:space="preserve"
   inkscape:version="1.3.2 (091e20e, 2023-11-25, custom)"
   xmlns:inkscape="http://www.inkscape.org/namespaces/inkscape"
   xmlns:sodipodi="http://sodipodi.sourceforge.net/DTD/sodipodi-0.dtd"
   xmlns="http://www.w3.org/2000/svg"
   xmlns:svg="http://www.w3.org/2000/svg"><defs
     id="defs41"><rect
       x="8.617321"
       y="478.26132"
       width="649.88965"
       height="142.90392"
       id="rect42" /><rect
       x="17.952751"
       y="440.91959"
       width="641.99042"
       height="178.8094"
       id="rect41" /></defs><sodipodi:namedview
     id="namedview41"
     pagecolor="#ffffff"
     bordercolor="#000000"
     borderopacity="0.25"
     inkscape:showpageshadow="2"
     inkscape:pageopacity="0.0"
     inkscape:pagecheckerboard="0"
     inkscape:deskcolor="#d1d1d1"
     showgrid="true"
     inkscape:zoom="2.7850883"
     inkscape:cx="84.377935"
     inkscape:cy="49.729123"
     inkscape:window-width="3440"
     inkscape:window-height="1417"
     inkscape:window-x="-8"
     inkscape:window-y="-8"
     inkscape:window-maximized="1"
     inkscape:current-layer="svg41"><inkscape:grid
       id="grid41"
       units="px"
       originx="0"
       originy="0"
       spacingx="1"
       spacingy="1"
       empcolor="#0099e5"
       empopacity="0.30196078"
       color="#0099e5"
       opacity="0.14901961"
       empspacing="5"
       dotted="false"
       gridanglex="30"
       gridanglez="30"
       visible="true" /></sodipodi:namedview><path
     d="m 88.862084,60.779076 c -0.66897,1.29459 -3.82678,6.80034 -4.56469,8.05498 -9.39311,16.45408 -14.99688,36.581934 -10.056,55.371354 2.68495,9.55677 7.80761,17.47842 15.00699,24.31883 9.44465,10.66813 25.533686,13.86093 33.333306,13.66883 2.82646,-0.005 15.69201,0.11751 27.68854,-8.97725 5.7093,-4.01945 10.5301,-8.81926 14.39924,-14.65286 l 0.76525,-1.13213 c 8.13078,-12.71091 8.5811,-28.39478 5.62893,-42.759264 -0.59335,-2.63958 -1.31866,-5.23044 -2.12507,-7.81235 l -0.34024,-1.08974 c -2.01155,-6.25506 -4.94172,-11.95496 -8.09481,-17.70508 -0.58582,-1.14393 -3.85053,-5.88999 -4.3089,-7.09001 8.59568,6.03479 51.99589,53.603924 52.72802,108.491504 -0.0221,7.79647 -0.0169,28.38422 -0.0538,34.76977 0,0 -37.8326,0.079 -50.65968,0.0303 -15.6373,-2.85895 -19.93142,-9.24521 -25.61596,-16.23422 -4.59913,-5.65452 -8.17345,-16.1421 -9.66621,-21.00795 -3.48865,11.38751 -6.95088,16.43091 -11.52177,22.99123 -10.51871,15.09688 -27.151716,14.24322 -27.151716,14.24322 -9.21076,-0.0103 -35.145634,-0.0165 -46.976294,-0.0225 -0.0135,-15.92232 0.003,-30.21805 -0.0222,-45.53455 2.47853,-31.66944 17.55224,-58.39312 51.607074,-97.922044 z"
     fill="#002d60"
     id="path1"
     sodipodi:nodetypes="ccccccccccccccccscsccccc"
     style="stroke-width:0.474346" /><path
     d="m 6.0851007,5.7270965 c 21.2572193,-0.003 27.3453893,0.0877 48.9144493,0.0346 20.229974,0.99282 35.543584,7.4209895 54.18903,30.3071395 C 72.176644,46.587736 45.46655,76.579236 21.70074,105.0117 11.76937,93.985036 7.8654307,87.564686 6.0780507,73.571126 c 0.0332,-19.99642 -0.0404,-47.84766 0.007,-67.8440695 z"
     fill="#009ad5"
     id="path2"
     sodipodi:nodetypes="cccccc"
     style="stroke-width:0.474346" /><path
     d="M 109.17094,36.104156 C 87.281444,63.051086 63.426114,89.572636 47.29899,120.5378 37.49145,119.31563 28.32889,111.82205 21.63573,104.96953 21.96178,104.23804 70.379734,40.094866 109.17094,36.104156 Z"
     fill="#006eb1"
     id="path5"
     sodipodi:nodetypes="cccc"
     style="display:inline;stroke-width:0.474346" /><path
     d="m 122.92699,166.62261 c 3.25959,11.73545 13.31921,33.22467 35.30481,37.64106 -17.66621,0.0307 -33.95329,-14.3414 -35.99206,-18.98991 -1.69271,4.90367 -22.05887,18.9664 -37.936126,18.96264 22.681126,-2.36762 33.655816,-24.58105 38.623376,-37.61379 z"
     fill="#002051"
     id="path13"
     style="display:inline;stroke-width:0.474346"
     sodipodi:nodetypes="ccccc" /><path
     d=""
     fill="#001926"
     id="path40" /><path
     d=""
     fill="#002a2a"
     id="path41" /><path
     d="m 238.9149,5.7182565 c -21.25722,-0.003 -27.34539,0.0877 -48.91445,0.0347 -20.22998,0.99281 -35.54359,7.4209895 -54.18903,30.3071395 37.01193,10.5189 63.72203,40.5104 87.48783,68.942874 9.93138,-11.026674 13.83532,-17.447024 15.6227,-31.440584 -0.0332,-19.99643 0.0404,-47.84767 -0.007,-67.8440795 z"
     fill="#009ad5"
     id="path2-0"
     sodipodi:nodetypes="cccccc"
     style="stroke-width:0.474346" /><path
     d="m 135.82082,36.092346 c 21.88949,26.94693 45.74482,53.46848 61.87195,84.433644 9.80754,-1.22217 18.9701,-8.71575 25.66326,-15.56827 -0.32605,-0.73149 -48.74401,-64.874664 -87.53521,-68.865374 z"
     fill="#006eb1"
     id="path5-8"
     sodipodi:nodetypes="cccc"
     style="display:inline;stroke-width:0.474346" /><path
     style="font-weight:bold;font-size:126.667px;font-family:Arial;-inkscape-font-specification:'Arial Bold';text-align:center;text-anchor:middle;white-space:pre;display:none;fill:#002d60;stroke-width:0.659228"
     d="m 3.0242025,-27.688908 11.7424795,-1.14164 c 0.70672,3.94135 2.13376,6.83619 4.28111,8.68455 2.17454,1.84836 5.09657,2.77253 8.76609,2.77253 3.88699,0 6.80901,-0.81545 8.76609,-2.44635 1.98426,-1.65808 2.97639,-3.58798 2.97639,-5.7897 0,-1.41344 -0.42131,-2.60944 -1.26394,-3.58797 -0.81546,-1.00573 -2.25608,-1.87554 -4.32189,-2.60945 -1.41345,-0.48927 -4.63448,-1.35908 -9.66308,-2.60944 -6.46924,-1.60371 -11.00858,-3.574385 -13.61802,-5.912015 -3.6695295,-3.28898 -5.5042895,-7.29828 -5.5042895,-12.02789 0,-3.04435 0.85622,-5.88483 2.56867,-8.52145 1.73963,-2.66381 4.2267495,-4.68884 7.4613595,-6.07511 3.26181,-1.38626 7.18956,-2.07939 11.78326,-2.07939 7.50214,0 13.14234,1.64449 16.92059,4.93347 3.80543,3.28899 5.80328,7.67883 5.99356,13.16952 l -12.06866,0.53004 c -0.51646,-3.07152 -1.6309,-5.27324 -3.34335,-6.60514 -1.68526,-1.35909 -4.22675,-2.03863 -7.62446,-2.03863 -3.50643,0 -6.25178,0.72031 -8.23604,2.16095 -1.27754,0.92417 -1.91631,2.16094 -1.91631,3.7103 0,1.41344 0.59799,2.62303 1.79399,3.62875 1.52217,1.27753 5.21888,2.60943 11.09012,3.9957 5.87124,1.38626 10.20672,2.8269 13.00643,4.32188 2.8269,1.46782 5.02861,3.49285 6.60515,6.075115 1.60371,2.55508 2.40557,5.72174 2.40557,9.49999 0,3.42489 -0.95136,6.63233 -2.85407,9.62232 -1.90272,2.98998 -4.59371,5.21887 -8.07296,6.6866801 -3.47925,1.44063 -7.81473,2.16095 -13.00643,2.16095 -7.5565,0 -13.35979,-1.73963 -17.40985,-5.2188801 -4.0500695,-3.50644 -6.4692395,-8.60301 -7.2575095,-15.28969 z M 61.410422,-8.2404279 V -68.012923 h 12.06866 v 59.7724951 z m 61.811108,-21.9763801 11.70171,3.7103 c -1.79399,6.5236 -4.78397,11.37553 -8.96995,14.55578 -4.1588,3.1530701 -9.44563,4.7296101 -15.86051,4.7296101 -7.93704,0 -14.460638,-2.70457 -19.570788,-8.1137301 -5.11015,-5.43633 -7.66523,-12.85693 -7.66523,-22.261785 0,-9.9485 2.56866,-17.66809 7.706,-23.15878 5.13733,-5.51788 11.891978,-8.27682 20.263928,-8.27682 7.31187,0 13.25106,2.16094 17.81758,6.48283 2.71817,2.55508 4.7568,6.2246 6.11588,11.00857 l -11.94634,2.85408 c -0.70673,-3.09871 -2.18813,-5.54506 -4.44421,-7.33905 -2.22889,-1.79399 -4.94706,-2.69099 -8.1545,-2.69099 -4.43061,0 -8.03218,1.59013 -10.804708,4.77038 -2.74535,3.18026 -4.11802,8.33119 -4.11802,15.45278 0,7.556515 1.35908,12.938485 4.07724,16.145915 2.718168,3.20744 6.251788,4.81116 10.600858,4.81116 3.20744,0 5.96637,-1.01932 8.27682,-3.05794 2.31043,-2.03862 3.96852,-5.24606 4.97424,-9.62231 z m 75.95918,21.9763801 H 186.05196 L 180.83307,-21.817678 H 156.9404 l -4.93348,13.5772501 h -12.80257 l 23.2811,-59.7724951 h 12.76179 z m -22.22102,-23.6480501 -8.23605,-22.180245 -8.07295,22.180245 z m 28.62229,23.6480501 V -68.012923 h 19.36694 c 7.33905,0 12.12302,0.299 14.35192,0.897 3.42489,0.89699 6.29255,2.85407 8.60299,5.87124 2.31045,2.98998 3.46567,6.86337 3.46567,11.62016 0,3.66953 -0.66595,6.75465 -1.99786,9.25536 -1.3319,2.50071 -3.03075,4.471395 -5.09656,5.912015 -2.03862,1.41345 -4.11802,2.35122 -6.23819,2.8133 -2.88126,0.57082 -7.05364,0.85623 -12.51716,0.85623 h -7.86909 v 22.5471901 z m 12.06866,-49.6609151 v 16.96136 h 6.60514 c 4.75679,0 7.93705,-0.31259 9.54077,-0.93777 1.60372,-0.62517 2.85408,-1.60371 3.75107,-2.93561 0.92417,-1.33191 1.38627,-2.88126 1.38627,-4.64807 0,-2.17453 -0.63877,-3.96852 -1.91631,-5.38197 -1.27754,-1.41345 -2.89485,-2.29685 -4.85193,-2.65021 -1.44063,-0.27182 -4.33548,-0.40773 -8.68454,-0.40773 z m 43.66735,49.6609151 V -68.012923 h 12.06866 v 23.52573 h 23.64805 v -23.52573 h 12.06866 V -8.2404279 H 297.0347 V -34.375608 h -23.64805 v 26.1351801 z"
     id="text41"
     aria-label="SICAPH&#10;"
     sodipodi:nodetypes="cccscsccccsccsccccscscsccsscsccccccccccscscsccccscssssccccccccccccccccsccssccscccccsscsscscccccccccccccc" /><path
     d="m 97.816954,119.23655 11.742486,-1.14163 c 0.70673,3.94135 2.13377,6.83619 4.28112,8.68455 2.17453,1.84835 5.09656,2.77253 8.76609,2.77253 3.88697,0 6.809,-0.81545 8.76608,-2.44636 1.98426,-1.65808 2.9764,-3.58798 2.9764,-5.78969 0,-1.41344 -0.42132,-2.60944 -1.26395,-3.58798 -0.81545,-1.00572 -2.25608,-1.87553 -4.32189,-2.60944 -1.41345,-0.48927 -4.63447,-1.35909 -9.66308,-2.60944 -6.46924,-1.60372 -11.00857,-3.57439 -13.61802,-5.91201 -3.66952,-3.28898 -5.504296,-7.298274 -5.504296,-12.027884 0,-3.04435 0.856236,-5.88483 2.568676,-8.52145 1.73963,-2.66381 4.22675,-4.68884 7.46137,-6.07511 3.2618,-1.38626 7.18955,-2.07939 11.78326,-2.07939 7.50214,0 13.14233,1.64449 16.92058,4.93347 3.80544,3.28898 5.80329,7.67882 5.99356,13.16951 l -12.06866,0.53005 c -0.51645,-3.07153 -1.6309,-5.27324 -3.34334,-6.60515 -1.68527,-1.35908 -4.22676,-2.03862 -7.62446,-2.03862 -3.50644,0 -6.25179,0.72031 -8.23605,2.16094 -1.27754,0.92418 -1.91631,2.16094 -1.91631,3.7103 0,1.41344 0.598,2.62303 1.79399,3.62875 1.52218,1.27754 5.21888,2.60944 11.09012,3.995694 5.87124,1.38627 10.20672,2.8269 13.00643,4.32189 2.82689,1.46781 5.02861,3.49285 6.60515,6.07511 1.60372,2.55507 2.40557,5.72174 2.40557,9.49998 0,3.42489 -0.95135,6.63233 -2.85407,9.62232 -1.90272,2.98998 -4.5937,5.21888 -8.07296,6.68669 -3.47925,1.44063 -7.81472,2.16095 -13.00642,2.16095 -7.55651,0 -13.35979,-1.73963 -17.40986,-5.21889 -4.05007,-3.50644 -6.469246,-8.603 -7.257516,-15.28969 z"
     style="font-weight:bold;font-size:126.667px;font-family:Arial;-inkscape-font-specification:'Arial Bold';text-align:center;text-anchor:middle;white-space:pre;fill:#002d60;stroke-width:0.474346"
     id="path1-0" /></svg>
